<svg xmlns="http://www.w3.org/2000/svg" width="232.856" height="42.007" viewBox="0 0 232.856 42.007">
  <g id="Group_18" data-name="Group 18" transform="translate(-35.485 -47.16)">
    <path id="Path_75" data-name="Path 75" d="M18.2,12.16a13.628,13.628,0,0,1,2.613.275,17.486,17.486,0,0,1,2.612.715,12.415,12.415,0,0,1,2.09.963,2.21,2.21,0,0,1,1.045,1.017,3.046,3.046,0,0,1,.688-2.063,2.438,2.438,0,0,1,1.953-.8q2.695,0,2.695,2.915,0,.5-.165,2.64V17.77q-.11,1.32-.193,2.228t-.082,1.4a26.963,26.963,0,0,0,.165,2.86l.165,1.98v.6q0,3.08-2.75,3.08-3.025,0-2.915-2.97,0-.495.028-.99t.028-.935a7.171,7.171,0,0,0-2.118-5.665A8.09,8.09,0,0,0,18.2,17.22a8.717,8.717,0,0,0-7.535,3.8q-2.7,3.8-2.7,10.56,0,6.93,2.8,10.753a9.139,9.139,0,0,0,7.81,3.823,8.91,8.91,0,0,0,4.785-1.293,7.188,7.188,0,0,0,2.97-3.437,7.746,7.746,0,0,0,.413-1.65,15.332,15.332,0,0,0,.138-2.2q0-3.135,2.915-3.135,3.08,0,3.08,3.135a12.543,12.543,0,0,1-4.235,9.79,15.14,15.14,0,0,1-10.67,3.795,15.308,15.308,0,0,1-12.1-5.28A17.078,17.078,0,0,1,2.558,39.8,25.9,25.9,0,0,1,1.485,32.07a26.983,26.983,0,0,1,1.1-8,18.515,18.515,0,0,1,3.41-6.352A15,15,0,0,1,18.2,12.16Zm28.16,31.515q.055,1.925.5,1.925a.9.9,0,0,0,.275-.055,1.275,1.275,0,0,0,.247-.027q.138-.028.357-.083a.9.9,0,0,0,.22-.028.9.9,0,0,1,.22-.028q.11,0,.11-.028t.11-.028a.686.686,0,0,1,.3-.055h.3q2.585,0,2.585,2.475T48.565,50.22q-.44,0-1.128-.055T45.815,50q-.88-.11-1.567-.165T43.12,49.78q-.385,0-.99.055T40.7,50q-.77.11-1.43.165t-1.1.055H37.9q-3.08,0-3.08-2.64,0-2.31,2.695-2.31h.55a1.808,1.808,0,0,0,.44.055q.66.11.935.165a2.317,2.317,0,0,0,.385.055q.22,0,.33-.275a7.238,7.238,0,0,0,.165-1.375q.055-.99.11-2.64,0-.935.028-1.843t.028-1.787l.165-8.085V27.45q0-1.21-.028-2.53t-.028-2.53V20.3l-.165-2.09a2.186,2.186,0,0,0-.275-.33.475.475,0,0,0-.33-.165q-.055,0-1.32.22a2.447,2.447,0,0,1-.467.055h-.468q-2.695,0-2.695-2.365,0-2.475,2.97-2.475h.632a1.8,1.8,0,0,1,.522.055l1.1.165a.9.9,0,0,1,.22.028.9.9,0,0,0,.22.028,2.667,2.667,0,0,0,.522.055h.468q.11,0,.522-.028a4.845,4.845,0,0,0,.853-.138q.495-.11.907-.165a6.447,6.447,0,0,1,.853-.055q2.035,0,2.035,2.255a3.271,3.271,0,0,0,.028.5.639.639,0,0,1-.083.385q-.33,4.07-.33,11.275Zm17.27-2.75v2.007a6.153,6.153,0,0,0,.055,1.018q.165,1.65.495,1.65-.055,0,.275-.055t.825-.165l-.055.055a4.252,4.252,0,0,1,.413-.11,3,3,0,0,1,.632-.055q2.86,0,2.86,2.42a2.215,2.215,0,0,1-.907,1.815,3.575,3.575,0,0,1-2.283.715q-.44,0-1.1-.055T63.305,50l-1.43-.193a7.625,7.625,0,0,0-.99-.083q-.6,0-1.347.055t-1.568.165q-.99.11-1.677.193a9.835,9.835,0,0,1-1.128.083q-2.97,0-2.97-2.53,0-2.42,2.695-2.42.11,0,.632.055t.853.11a2.36,2.36,0,0,0,.6.11h.33q.44,0,.605-2.64V29.65q-.165-2.585-.66-2.585a2.318,2.318,0,0,0-.385.055q-.275.055-.66.165a2.142,2.142,0,0,1-.632.138q-.358.028-.577.028-2.8,0-2.805-2.42,0-2.475,3.19-2.475h.99a1.93,1.93,0,0,1,.55.055q.77.11,1.292.165t.688.055q.11,0,.467-.028t.688-.082l1.43-.165q2.365,0,2.365,2.75v.77a1.546,1.546,0,0,0-.055.358v.192a10.257,10.257,0,0,0-.055,1.54q0,.385-.028.8t-.028.852q-.055,1.1-.055,2.173v8.937ZM60,21.235A3.766,3.766,0,0,1,57.31,20.19a3.423,3.423,0,0,1-1.1-2.585,3.336,3.336,0,0,1,1.1-2.557A3.822,3.822,0,0,1,60,14.03a3.921,3.921,0,0,1,2.723,1.017A3.3,3.3,0,0,1,63.855,17.6a3.383,3.383,0,0,1-1.127,2.585A3.862,3.862,0,0,1,60,21.235Zm18.04,1.32A2.078,2.078,0,0,1,80.41,24.26a10.842,10.842,0,0,1,7.48-2.64,11.452,11.452,0,0,1,5.775,1.54H93.61A8.4,8.4,0,0,1,97.4,27.065a12.5,12.5,0,0,1,.825,4.895V44.445q.055.88.385,1.1.275,0,.715-.027a5.54,5.54,0,0,0,.715-.083q.275-.055.495-.083a4.56,4.56,0,0,1,.55-.028,2.568,2.568,0,0,1,1.76.688,2.11,2.11,0,0,1,.77,1.622,2.317,2.317,0,0,1-.88,1.843,3.214,3.214,0,0,1-2.145.743q-.275,0-.853-.028a9,9,0,0,1-1.182-.138q-.825-.11-1.788-.193T95.1,49.78q-.55,0-1.128.028t-1.018.083q-1.21.165-1.98.248t-.88.083q-2.97,0-2.97-2.585,0-2.31,2.64-2.31a1.808,1.808,0,0,0,.44.055,2.921,2.921,0,0,1,.412.028,2.921,2.921,0,0,0,.412.028q.275.055.44.083a1.729,1.729,0,0,0,.275.027.9.9,0,0,0,.22.055q.385,0,.44-2.09,0-.66.055-1.347t.055-1.347l.055-3.135V33.72a18.06,18.06,0,0,0-.275-3.685,4.369,4.369,0,0,0-.6-1.513,4.119,4.119,0,0,0-1.045-1.128v.055a5.817,5.817,0,0,0-3.355-1.1q-3.685,0-5.28,2.585-1.1,1.87-1.1,6.6v6.93a14.956,14.956,0,0,0,.138,2.53q.138.66.467.66a2.744,2.744,0,0,0,.33-.055q.275-.055.6-.11a4.618,4.618,0,0,1,.632-.165,4.238,4.238,0,0,1,.743-.055,2.212,2.212,0,0,1,2.53,2.475q0,2.475-2.97,2.475a9.737,9.737,0,0,1-1.073-.11q-.8-.11-1.787-.22a16.374,16.374,0,0,0-2.42-.165q-.5,0-1.183.055t-1.623.165l-1.21.11a6.067,6.067,0,0,1-.935.138q-.44.028-.55.028-3.08,0-3.08-2.53,0-2.365,2.53-2.365a3.374,3.374,0,0,1,.467.028,4.1,4.1,0,0,1,.412.083,6.584,6.584,0,0,0,1.485.165q.66,0,.715-2.255,0-1.43.055-2.888t.055-2.888V31.245l-.11-1.815a16.948,16.948,0,0,0-.22-1.732q-.11-.523-.385-.632a1.628,1.628,0,0,1-.5.083,3.705,3.705,0,0,0-.6.082q-.33.055-.605.083t-.55.028q-2.75,0-2.75-2.42t3.19-2.42a1.885,1.885,0,0,0,.358-.028.585.585,0,0,1,.357.083l1.815.22q.275,0,.632-.028t.688-.083q.44-.055.743-.082T78.045,22.555ZM124.19,42.3q0,3.19,1.815,3.19.11,0,.467-.027t.688-.083q.385,0,.935-.055t.44-.055a2.529,2.529,0,0,1,1.815.743,2.278,2.278,0,0,1,.77,1.677q0,2.585-3.245,2.585h-.44a1.219,1.219,0,0,0-.385-.055l-2.64-.385q-.77-.11-1.54-.165t-1.6-.055q-.935,0-1.815.055t-1.65.165l-2.64.385a.766.766,0,0,0-.33.055h-.495q-3.245,0-3.245-2.585,0-2.42,2.585-2.42-.11,0,.467.055t.908.055q.385.055.715.083t.44.027q1.76,0,1.76-3.19V38.615l.055-4.675V29.485l-.055-8.635q0-3.025-2.97-3.025h-1.6q-2.915,0-2.915,2.97v1.073a3.59,3.59,0,0,0,.055.687l.22,1.87a3.416,3.416,0,0,1,.055.66v.77q0,4.07-2.97,4.07-2.86,0-2.86-3.135v-.66a5.841,5.841,0,0,1,.055-.825,3.856,3.856,0,0,1,.028-.413,4.736,4.736,0,0,0,.027-.522q.165-2.475.165-3.19,0-.605-.027-1.265t-.083-1.43l-.165-1.595q-.055-.33,0-.33t-.055-.495q0-2.97,2.915-2.97.33,0,1.238.028t2.228.138h.44q.5,0,1.458.027t2.393.083q1.485,0,3,.055t3,.055q.275,0,.825-.028t1.32-.028q.66,0,1.54-.028t1.98-.028q.935,0,3.41-.165.935-.11,1.87-.138t1.54-.027q3.52,0,3.52,3.025,0,.55-.137,2.007t-.247,3.053v1.512a11.182,11.182,0,0,0,.11,1.458q.11,1.1.165,1.815t.055.99q0,2.86-2.97,2.86-2.86,0-2.86-3.355,0-.935.165-2.86.055-.935.083-1.65T132,20.74q0-2.915-3.245-2.915H127.27a2.721,2.721,0,0,0-2.09.715,3.479,3.479,0,0,0-.77,2.145l-.165,3.685Zm24.585-19.745q1.815,0,2.145,1.43a9.429,9.429,0,0,1,6.435-2.365,11.1,11.1,0,0,1,3.685.577,8.482,8.482,0,0,1,2.86,1.65,7.387,7.387,0,0,1,1.87,2.558,8.037,8.037,0,0,1,.66,3.3,6.369,6.369,0,0,1-1.375,4.262,4.584,4.584,0,0,1-3.685,1.623,3.914,3.914,0,0,1-2.668-.935,2.945,2.945,0,0,1-1.072-2.31,2.7,2.7,0,0,1,.908-1.98,2.885,2.885,0,0,1,2.063-.88q.11,0-.027-.055l.137.055V29.21a2.483,2.483,0,0,0-1.072-2.035,4.245,4.245,0,0,0-2.668-.825,4.5,4.5,0,0,0-4.62,3.19,20.772,20.772,0,0,0-.77,6.49v6a6.817,6.817,0,0,0,.055,1.155q.275,2.42.715,2.42.33,0,.6-.027t.55-.083a4.371,4.371,0,0,1,1.265-.22q2.53,0,2.53,2.365,0,2.585-3.025,2.585h-.165q-.44,0-1.072-.055T151.58,50q-1.6-.165-2.255-.165-1.045,0-1.815.028t-1.375.083l-2.97.275q-3.025,0-3.025-2.585,0-2.31,2.86-2.31a3.374,3.374,0,0,0,.467-.028.935.935,0,0,1,.468.083l.66.165h.44a.224.224,0,0,0,.165.055h.055q.5,0,.55-1.65,0-.66.055-1.32t.055-1.32l-.165-11.825q-.11-2.035-.55-2.31-.11,0-.55.055a5.855,5.855,0,0,1-.605.055h.11a5.649,5.649,0,0,1-1.375.165q-2.585,0-2.585-2.42,0-2.53,3.08-2.53a2.428,2.428,0,0,0,.66.083q.55.028.99.082t.853.083q.412.028.632.028h.3a2.447,2.447,0,0,0,.467-.055.609.609,0,0,0,.193-.028.834.834,0,0,1,.247-.028A5.879,5.879,0,0,1,148.775,22.555Zm29.7,18.37v2.007a6.152,6.152,0,0,0,.055,1.018q.165,1.65.495,1.65-.055,0,.275-.055t.825-.165l-.055.055a4.253,4.253,0,0,1,.413-.11,3,3,0,0,1,.632-.055q2.86,0,2.86,2.42a2.215,2.215,0,0,1-.908,1.815,3.575,3.575,0,0,1-2.283.715q-.44,0-1.1-.055T178.145,50l-1.43-.193a7.625,7.625,0,0,0-.99-.083q-.605,0-1.347.055t-1.568.165q-.99.11-1.678.193A9.835,9.835,0,0,1,170,50.22q-2.97,0-2.97-2.53,0-2.42,2.7-2.42.11,0,.632.055t.853.11a2.36,2.36,0,0,0,.6.11h.33q.44,0,.6-2.64V29.65q-.165-2.585-.66-2.585a2.318,2.318,0,0,0-.385.055q-.275.055-.66.165a2.142,2.142,0,0,1-.632.138q-.357.028-.577.028-2.805,0-2.805-2.42,0-2.475,3.19-2.475h.99a1.93,1.93,0,0,1,.55.055q.77.11,1.292.165t.688.055q.11,0,.467-.028t.688-.082l1.43-.165q2.365,0,2.365,2.75v.77a1.546,1.546,0,0,0-.055.358v.192a10.257,10.257,0,0,0-.055,1.54q0,.385-.027.8t-.027.852q-.055,1.1-.055,2.173v8.937Zm-3.63-19.69a3.766,3.766,0,0,1-2.7-1.045,3.423,3.423,0,0,1-1.1-2.585,3.336,3.336,0,0,1,1.1-2.557,3.822,3.822,0,0,1,2.7-1.017,3.921,3.921,0,0,1,2.722,1.017,3.3,3.3,0,0,1,1.128,2.557,3.383,3.383,0,0,1-1.128,2.585A3.862,3.862,0,0,1,174.845,21.235Z" transform="translate(34 35)" fill="#3b719f"/>
    <g id="noun_medical_1067176" transform="translate(226.479 46.943)">
      <path id="Path_12" data-name="Path 12" d="M32.228,72.3l2.192-1.154-3.6-1.871-.142.075a4.218,4.218,0,0,0,.317,7.615,1.667,1.667,0,0,0,.65.133h.075a1.667,1.667,0,0,0,.579-3.2.884.884,0,0,1-.067-1.592Z" transform="translate(-15.901 -38.478)" fill="#3b719f"/>
      <path id="Path_13" data-name="Path 13" d="M46.4,46.821a4.168,4.168,0,0,0-2.567-3.705A1.667,1.667,0,0,0,43.188,43h-.075a1.667,1.667,0,0,0-.575,3.2.884.884,0,0,1,.067,1.592L37.411,50.5l-5.189-2.726a.884.884,0,0,1,.067-1.592A1.667,1.667,0,0,0,31.709,43h-.075a1.667,1.667,0,0,0-.65.133,4.218,4.218,0,0,0-.317,7.615l5.327,2.767,6.6,3.476a.884.884,0,0,1-.067,1.592,1.667,1.667,0,0,0,.583,3.172h.075a1.667,1.667,0,0,0,.65-.133,4.218,4.218,0,0,0,.317-7.615L41.016,52.34l3.026-1.584h0l.117-.063A4.168,4.168,0,0,0,46.4,46.821Z" transform="translate(-15.895 -23.156)" fill="#3b719f"/>
      <path id="Path_14" data-name="Path 14" d="M62.075,4.234A6.427,6.427,0,0,1,60.7,11.627v5.614a4.36,4.36,0,0,1,1.113-.2h.2a4.435,4.435,0,0,1,1.742.354,7.044,7.044,0,0,1,2.3,1.58,3.572,3.572,0,0,0,3.334-3.564V13.895h.021a3.576,3.576,0,0,0,3.576-3.576V8.81h.021a3.576,3.576,0,0,0,3.576-3.576V3.3H66.368a10.336,10.336,0,0,0-4.293.934Z" transform="translate(-34.725 -0.003)" fill="#3b719f"/>
      <path id="Path_15" data-name="Path 15" d="M4.736,8.81h.025v1.509a3.576,3.576,0,0,0,3.576,3.576h.021V15.4a3.572,3.572,0,0,0,3.334,3.563,7.044,7.044,0,0,1,2.147-1.509,4.647,4.647,0,0,1,1.25-.379,4.48,4.48,0,0,1,.834-.042,4.36,4.36,0,0,1,1.113.2v-5.61a6.427,6.427,0,0,1-1.355-7.394A10.336,10.336,0,0,0,11.388,3.3H1.16V5.234A3.576,3.576,0,0,0,4.736,8.81Z" transform="translate(0 -0.003)" fill="#3b719f"/>
      <path id="Path_16" data-name="Path 16" d="M45.4,24.428a.779.779,0,0,0,1.138-.679V10.216a3.659,3.659,0,0,0,2-3.263A3.7,3.7,0,0,0,44.985,3.3,3.659,3.659,0,0,0,43.2,10.216V23.3Z" transform="translate(-23.353)" fill="#3b719f"/>
      <path id="Path_17" data-name="Path 17" d="M49.334,82.675V77.256L46,75.51v7.165a1.667,1.667,0,0,0,3.334,0Z" transform="translate(-26.151 -42.117)" fill="#3b719f"/>
    </g>
  </g>
</svg>
