<svg xmlns="http://www.w3.org/2000/svg" width="33.667" height="45" viewBox="0 0 33.667 45">
  <g id="noun_adult_and_child_474181" data-name="noun_adult and child_474181" transform="translate(-186 120)">
    <g id="Group_28" data-name="Group 28" transform="translate(-73.667 -562)">
      <g id="Group_27" data-name="Group 27" transform="translate(275 442)">
        <path id="Path_68" data-name="Path 68" d="M280,487h8.333A1.665,1.665,0,0,0,290,485.333v-15A3.335,3.335,0,0,0,293.333,467V455.333A3.335,3.335,0,0,0,290,452h-1.758a5.833,5.833,0,1,0-8.15,0h-1.758A3.335,3.335,0,0,0,275,455.333V467a3.335,3.335,0,0,0,3.333,3.333v15A1.665,1.665,0,0,0,280,487Zm0-39.167A4.167,4.167,0,1,1,284.167,452,4.17,4.17,0,0,1,280,447.833ZM276.667,467V455.333a1.667,1.667,0,0,1,1.667-1.667H290a1.667,1.667,0,0,1,1.667,1.667V467A1.667,1.667,0,0,1,290,468.667v-10h-1.667v26.667H285V468.667h-1.667v16.667H280V458.667h-1.667v10A1.667,1.667,0,0,1,276.667,467Z" transform="translate(-275 -442)" fill="#fff"/>
        <path id="Path_69" data-name="Path 69" d="M291.333,480.333h5A1.665,1.665,0,0,0,298,478.667v-8.8A3.318,3.318,0,0,0,299.667,467v-5a3.329,3.329,0,0,0-2.593-3.243,4.122,4.122,0,0,0,.927-2.59,4.167,4.167,0,1,0-8.333,0,4.122,4.122,0,0,0,.927,2.59A3.329,3.329,0,0,0,288,462v5a3.32,3.32,0,0,0,1.667,2.872v8.8A1.665,1.665,0,0,0,291.333,480.333Zm2.5-26.667a2.5,2.5,0,1,1-2.5,2.5A2.5,2.5,0,0,1,293.833,453.667ZM289.667,462a1.667,1.667,0,0,1,1.667-1.667h5A1.667,1.667,0,0,1,298,462v5h-1.667v11.667h-1.667v-8.333H293v8.333h-1.667V467h-1.667Z" transform="translate(-303.333 -435.333)" fill="#fff"/>
      </g>
    </g>
  </g>
</svg>
