<svg xmlns="http://www.w3.org/2000/svg" width="34.568" height="38.043" viewBox="0 0 34.568 38.043">
  <g id="noun_Settings_943929" transform="translate(-11.2 -7.3)">
    <g id="Group_13" data-name="Group 13" transform="translate(11.2 7.3)" fill="#2f2f2f">
      <path id="Path_44" data-name="Path 44" d="M44.12,40.921H40.735A5.92,5.92,0,0,0,35.077,36.6a6.07,6.07,0,0,0-5.7,4.321H12.848a1.648,1.648,0,0,0,0,3.3H29.375a5.864,5.864,0,0,0,11.315,0h3.386a1.644,1.644,0,0,0,1.648-1.648A1.58,1.58,0,0,0,44.12,40.921Zm-9.043,4.321A2.68,2.68,0,0,1,32.4,42.569a2.673,2.673,0,0,1,5.346,0A2.68,2.68,0,0,1,35.077,45.242Z" transform="translate(-11.2 -23.548)" />
      <path id="Path_45" data-name="Path 45" d="M12.848,14.918h3.519a5.864,5.864,0,0,0,11.315,0H44.12a1.644,1.644,0,0,0,1.648-1.648,1.617,1.617,0,0,0-1.648-1.648H27.682a5.864,5.864,0,0,0-11.315,0H12.848A1.644,1.644,0,0,0,11.2,13.269,1.617,1.617,0,0,0,12.848,14.918ZM22.025,10.6A2.68,2.68,0,0,1,24.7,13.269a2.625,2.625,0,0,1-2.673,2.673,2.68,2.68,0,0,1-2.673-2.673A2.74,2.74,0,0,1,22.025,10.6Z" transform="translate(-11.2 -7.3)" fill="#2f2f2f"/>
      <path id="Path_46" data-name="Path 46" d="M44.12,70.221H27.682a5.864,5.864,0,0,0-11.315,0H12.848A1.644,1.644,0,0,0,11.2,71.869a1.617,1.617,0,0,0,1.648,1.648h3.519a5.864,5.864,0,0,0,11.315,0H44.12a1.644,1.644,0,0,0,1.648-1.648A1.617,1.617,0,0,0,44.12,70.221Zm-22.1,4.321a2.68,2.68,0,0,1-2.673-2.673,2.673,2.673,0,1,1,5.346,0A2.68,2.68,0,0,1,22.025,74.542Z" transform="translate(-11.2 -39.795)" fill="#2f2f2f"/>
    </g>
  </g>
</svg>
