<svg xmlns="http://www.w3.org/2000/svg" width="50" height="31.915" viewBox="0 0 50 31.915">
  <g id="noun_Genders_2293867" transform="translate(-126.407 -15.595)">
    <g id="Group_26" data-name="Group 26" transform="translate(126.407 15.595)">
      <path id="Path_67" data-name="Path 67" d="M46.856,972.485a1.595,1.595,0,1,0,.166,3.185h.4l-2.838,2.836a13.2,13.2,0,0,0-16.051-.232A13.254,13.254,0,0,0,8.962,996.056l-2.307,2.306-1-1A1.59,1.59,0,1,0,3.4,999.606l1,1.012-1,1a1.593,1.593,0,1,0,2.257,2.239l1-1,1,1a1.593,1.593,0,1,0,2.257-2.239l-1-1,2.291-2.306a13.262,13.262,0,0,0,16.067.249,13.267,13.267,0,0,0,19.569-17.815l2.838-2.836v.415a1.594,1.594,0,0,0,3.187,0v-4.246a1.593,1.593,0,0,0-1.593-1.592H47.022a1.619,1.619,0,0,0-.166,0ZM19.4,977.793a10.043,10.043,0,0,1,6.805,2.654,13.229,13.229,0,0,0-.979,15.659A10.085,10.085,0,1,1,19.4,977.793Zm17,1.062a10.085,10.085,0,1,1-6.805,17.533,13.229,13.229,0,0,0,.979-15.659A10.032,10.032,0,0,1,36.4,978.855ZM28.249,983a10.133,10.133,0,0,1-.7,10.832,10.133,10.133,0,0,1,.7-10.832Z" transform="translate(-2.864 -972.483)" fill="#fff"/>
    </g>
  </g>
</svg>
