<svg xmlns="http://www.w3.org/2000/svg" width="12.003" height="31.589" viewBox="0 0 12.003 31.589">
  <g id="noun_Info_2631565" transform="translate(-31.003)">
    <path id="Path_76" data-name="Path 76" d="M43.006,50.994V52.2a1.782,1.782,0,0,1-1.782,1.778H34.006A1.785,1.785,0,0,1,32.228,52.2v-1.21a1.785,1.785,0,0,1,1.778-1.778h.505v-12c0-.351,0-.351-.351-.351H32.812a1.894,1.894,0,0,1-1.788-1.718,1.979,1.979,0,0,1,1.384-2.091,4.334,4.334,0,0,1,1.753-.316h3.544A3.045,3.045,0,0,1,40.292,34a2.7,2.7,0,0,1,.572,1.579c.028.821.016,1.646.016,2.47v11.22h.344A1.782,1.782,0,0,1,43.006,50.994Z" transform="translate(0 -22.393)"/>
    <circle id="Ellipse_20" data-name="Ellipse 20" cx="3.797" cy="3.797" r="3.797" transform="translate(33.504 0)"/>
  </g>
</svg>
