<svg xmlns="http://www.w3.org/2000/svg" width="224.342" height="67" viewBox="0 0 224.342 67">
  <g id="Group_32" data-name="Group 32" transform="translate(-44 -35)">
    <text id="ClinTri" transform="translate(44 35)" fill="#3b719f" font-size="55" font-family="Montserrat-Medium, Montserrat" font-weight="500" letter-spacing="-0.025em"><tspan x="0" y="53">ClinTri</tspan></text>
    <g id="noun_medical_1067176" transform="translate(226.479 46.943)">
      <path id="Path_12" data-name="Path 12" d="M32.228,72.3l2.192-1.154-3.6-1.871-.142.075a4.218,4.218,0,0,0,.317,7.615,1.667,1.667,0,0,0,.65.133h.075a1.667,1.667,0,0,0,.579-3.2.884.884,0,0,1-.067-1.592Z" transform="translate(-15.901 -38.478)" fill="#3b719f"/>
      <path id="Path_13" data-name="Path 13" d="M46.4,46.821a4.168,4.168,0,0,0-2.567-3.705A1.667,1.667,0,0,0,43.188,43h-.075a1.667,1.667,0,0,0-.575,3.2.884.884,0,0,1,.067,1.592L37.411,50.5l-5.189-2.726a.884.884,0,0,1,.067-1.592A1.667,1.667,0,0,0,31.709,43h-.075a1.667,1.667,0,0,0-.65.133,4.218,4.218,0,0,0-.317,7.615l5.327,2.767,6.6,3.476a.884.884,0,0,1-.067,1.592,1.667,1.667,0,0,0,.583,3.172h.075a1.667,1.667,0,0,0,.65-.133,4.218,4.218,0,0,0,.317-7.615L41.016,52.34l3.026-1.584h0l.117-.063A4.168,4.168,0,0,0,46.4,46.821Z" transform="translate(-15.895 -23.156)" fill="#3b719f"/>
      <path id="Path_14" data-name="Path 14" d="M62.075,4.234A6.427,6.427,0,0,1,60.7,11.627v5.614a4.36,4.36,0,0,1,1.113-.2h.2a4.435,4.435,0,0,1,1.742.354,7.044,7.044,0,0,1,2.3,1.58,3.572,3.572,0,0,0,3.334-3.564V13.895h.021a3.576,3.576,0,0,0,3.576-3.576V8.81h.021a3.576,3.576,0,0,0,3.576-3.576V3.3H66.368a10.336,10.336,0,0,0-4.293.934Z" transform="translate(-34.725 -0.003)" fill="#3b719f"/>
      <path id="Path_15" data-name="Path 15" d="M4.736,8.81h.025v1.509a3.576,3.576,0,0,0,3.576,3.576h.021V15.4a3.572,3.572,0,0,0,3.334,3.563,7.044,7.044,0,0,1,2.147-1.509,4.647,4.647,0,0,1,1.25-.379,4.48,4.48,0,0,1,.834-.042,4.36,4.36,0,0,1,1.113.2v-5.61a6.427,6.427,0,0,1-1.355-7.394A10.336,10.336,0,0,0,11.388,3.3H1.16V5.234A3.576,3.576,0,0,0,4.736,8.81Z" transform="translate(0 -0.003)" fill="#3b719f"/>
      <path id="Path_16" data-name="Path 16" d="M45.4,24.428a.779.779,0,0,0,1.138-.679V10.216a3.659,3.659,0,0,0,2-3.263A3.7,3.7,0,0,0,44.985,3.3,3.659,3.659,0,0,0,43.2,10.216V23.3Z" transform="translate(-23.353)" fill="#3b719f"/>
      <path id="Path_17" data-name="Path 17" d="M49.334,82.675V77.256L46,75.51v7.165a1.667,1.667,0,0,0,3.334,0Z" transform="translate(-26.151 -42.117)" fill="#3b719f"/>
    </g>
  </g>
</svg>
