<svg xmlns="http://www.w3.org/2000/svg" data-name="Layer 1" viewBox="0 0 100 125" x="0px" y="0px"><title>fc</title><path d="M50,3.12A46.87,46.87,0,1,1,3.12,50,46.93,46.93,0,0,1,50,3.12M50,0a50,50,0,1,0,50,50A50,50,0,0,0,50,0Z"/><path d="M78.89,78.38H21.11a4.22,4.22,0,0,1-4.19-4.19V68.94a4.23,4.23,0,0,1,4.19-4.19H78.89a4.23,4.23,0,0,1,4.19,4.19v5.25a4.23,4.23,0,0,1-4.19,4.19M21.11,67.87a1,1,0,0,0-.74.32,1,1,0,0,0-.33.74v5.25a1,1,0,0,0,.32.75,1,1,0,0,0,.74.32H78.89A1.11,1.11,0,0,0,80,74.19V68.94a1.11,1.11,0,0,0-1.07-1.06H21.11ZM78.89,57.37H21.11a4.22,4.22,0,0,1-4.19-4.19V47.93a4.22,4.22,0,0,1,4.19-4.19H78.89a4.22,4.22,0,0,1,4.19,4.19v5.25A4.23,4.23,0,0,1,78.89,57.37ZM21.11,46.86A1.1,1.1,0,0,0,20,47.93v5.25a1.1,1.1,0,0,0,1.07,1.06H78.89A1.11,1.11,0,0,0,80,53.18V47.93a1.1,1.1,0,0,0-1.07-1.06H21.11ZM78.89,36.36H21.11a4.23,4.23,0,0,1-4.19-4.19V26.92a4.23,4.23,0,0,1,4.19-4.19H78.89a4.23,4.23,0,0,1,4.19,4.19v5.25A4.23,4.23,0,0,1,78.89,36.36ZM21.11,25.85A1.1,1.1,0,0,0,20,26.92v5.25a1.11,1.11,0,0,0,1.07,1.06H78.89A1.11,1.11,0,0,0,80,32.17V26.92a1,1,0,0,0-.33-0.75,1,1,0,0,0-.74-0.32H21.11Z"/><text x="0" y="115" fill="#000000" font-size="5px" font-weight="bold" font-family="'Helvetica Neue', Helvetica, Arial-Unicode, Arial, Sans-serif">Created by Dániel Aczél</text><text x="0" y="120" fill="#000000" font-size="5px" font-weight="bold" font-family="'Helvetica Neue', Helvetica, Arial-Unicode, Arial, Sans-serif">from the Noun Project</text></svg>