<svg xmlns="http://www.w3.org/2000/svg" width="36.727" height="37.433" viewBox="0 0 36.727 37.433">
  <g id="noun_Date_Range_204897" data-name="noun_Date Range_204897" transform="translate(-168 77)">
    <g id="Group_24" data-name="Group 24" transform="translate(168 -77)">
      <g id="Group_23" data-name="Group 23" transform="translate(0)">
        <path id="Path_66" data-name="Path 66" d="M31.418,39.307v-2.82c0-.395-.243-.509-.542-.26L25.6,40.621a.566.566,0,0,0,0,.9l5.272,4.394c.3.25.542.133.542-.26v-2.82h9.889v2.82c0,.393.241.51.542.26l5.273-4.394a.566.566,0,0,0,0-.9l-5.273-4.394c-.3-.249-.542-.135-.542.26v2.82ZM49.076,19.531h2.829a2.826,2.826,0,0,1,2.821,2.832V50.6a2.827,2.827,0,0,1-2.821,2.832H20.821A2.826,2.826,0,0,1,18,50.6V22.364a2.827,2.827,0,0,1,2.821-2.832H23.65v3.526a2.828,2.828,0,0,0,2.832,2.83h1.4a2.828,2.828,0,0,0,2.832-2.83V19.531h11.3v3.526a2.828,2.828,0,0,0,2.832,2.83h1.4a2.828,2.828,0,0,0,2.832-2.83V19.531ZM20.119,31.537a.71.71,0,0,1,.709-.705H51.9a.711.711,0,0,1,.709.705V50.609a.71.71,0,0,1-.709.705H20.828a.711.711,0,0,1-.709-.705Zm4.944-14.118A1.417,1.417,0,0,1,26.474,16h1.416A1.416,1.416,0,0,1,29.3,17.419v5.638a1.417,1.417,0,0,1-1.411,1.419H26.474a1.416,1.416,0,0,1-1.411-1.419Zm18.363,0A1.417,1.417,0,0,1,44.837,16h1.416a1.416,1.416,0,0,1,1.411,1.419v5.638a1.417,1.417,0,0,1-1.411,1.419H44.837a1.416,1.416,0,0,1-1.411-1.419Z" transform="translate(-18 -16)" fill="#fff" fill-rule="evenodd"/>
      </g>
    </g>
  </g>
</svg>
