<svg xmlns="http://www.w3.org/2000/svg" width="36.367" height="36.367" viewBox="0 0 36.367 36.367">
  <g id="noun_World_Map_752107" data-name="noun_World Map_752107" transform="translate(-172.316 168.684)">
    <g id="Group_31" data-name="Group 31" transform="translate(171.816 -169.184)">
      <path id="Path_73" data-name="Path 73" d="M25.394,22.576a.834.834,0,0,0-.455-.227c-.076,0-.152-.076-.227-.152l-.3-.3c-.076-.076-.076-.152-.152-.227a4.029,4.029,0,0,0-4.319-1.136.913.913,0,0,0-.379.379,5.9,5.9,0,0,0-.3,3.561,9.691,9.691,0,0,0,.985,3.637,7.766,7.766,0,0,0,2.728,2.5,1.81,1.81,0,0,0,.53.227c.076,0,.227.076.3.076a1.533,1.533,0,0,0,1.364-.985,2.761,2.761,0,0,0,.152-1.061v-.152a5.208,5.208,0,0,1,.379-1.818,3.694,3.694,0,0,0,.227-.53,6.447,6.447,0,0,0,.455-1.288A3.048,3.048,0,0,0,25.394,22.576ZM24.712,24.7a5.26,5.26,0,0,1-.379.985,5.22,5.22,0,0,0-.227.606,6.465,6.465,0,0,0-.455,2.349v.606a7.762,7.762,0,0,1-2.2-1.97,6.645,6.645,0,0,1-.758-3.031,6.356,6.356,0,0,1,.076-2.424,2.646,2.646,0,0,1,2.349.758l.152.152a4.9,4.9,0,0,0,.606.682l.455.227c.076,0,.152.076.227.152A1.109,1.109,0,0,1,24.712,24.7Z" transform="translate(-4.513 -4.801)" fill="#fff"/>
      <path id="Path_74" data-name="Path 74" d="M18.684.5A18.184,18.184,0,1,0,36.867,18.684,18.237,18.237,0,0,0,18.684.5Zm7.425,10.986a1.4,1.4,0,0,0,.152.53c0,.076,0,.076.076.152a2.3,2.3,0,0,1-1.515.227.754.754,0,0,1-.53-.682l.3-2.121a.911.911,0,0,0-.152-.606.767.767,0,0,0-.53-.3A3.784,3.784,0,0,1,21.032,6.94c-.152-.152-.152-.227-.152-.227,0-.076.076-.152.076-.227a4.26,4.26,0,0,1,1.591-1.97L22.7,4.44a1.718,1.718,0,0,0,.833-.53,1.712,1.712,0,0,0,.379-1.136,16.2,16.2,0,0,1,6.213,3.712c-.076.076-.227.152-.3.227a8.068,8.068,0,0,1-1.743,1.212A4.071,4.071,0,0,0,26.412,9.44,5.349,5.349,0,0,0,26.109,11.486Zm-24.093,7.2A16.783,16.783,0,0,1,8.38,5.576a2.7,2.7,0,0,1,1.061.985c0,.076-.152.152-.227.3a2.62,2.62,0,0,0-.53.909A1.915,1.915,0,0,0,10.2,9.895a4.434,4.434,0,0,0,.985.152c.3,0,.53.076.758.076a2.171,2.171,0,0,1,1.288,1.97,1.577,1.577,0,0,1-.227.985,2.38,2.38,0,0,1-1.061.833c-.379.227-.682.379-.909.53a3.055,3.055,0,0,0-1.97,2.273c-1.667,5,1.515,7.728,3.712,9.546a11.547,11.547,0,0,1,1.364,1.288A2.966,2.966,0,0,1,14.9,28.76c.227,1.061-.909,2.046-1.591,2.5a4.6,4.6,0,0,1-.758.53,4.487,4.487,0,0,0-1.667,1.515A16.381,16.381,0,0,1,2.015,18.684Zm10.228,15.38a7.112,7.112,0,0,1,1.061-.909,3.364,3.364,0,0,0,.833-.606c1.667-1.288,2.424-2.652,2.121-4.016a4.9,4.9,0,0,0-1.061-1.97c-.379-.455-.985-.909-1.515-1.44-2.121-1.818-4.622-3.864-3.258-7.88a1.852,1.852,0,0,1,1.212-1.44c.3-.152.606-.3.985-.53a4.376,4.376,0,0,0,1.515-1.364,3.408,3.408,0,0,0,.455-1.818,3.561,3.561,0,0,0-2.349-3.409,5.116,5.116,0,0,0-1.061-.152c-.227,0-.53-.076-.682-.076a1.434,1.434,0,0,1-.455-.3c0-.076.152-.227.227-.3a1.615,1.615,0,0,0,.53-1.136C10.88,5.955,10.2,5.2,9.516,4.667a16.573,16.573,0,0,1,9.016-2.652,15.714,15.714,0,0,1,3.788.455h0a1.031,1.031,0,0,1,0,.53,1.09,1.09,0,0,0-.227.152h-.076A5.572,5.572,0,0,0,19.669,5.8a5,5,0,0,0-.3.833,1.705,1.705,0,0,0,.379,1.136A5.411,5.411,0,0,0,23,10.122l-.227,1.44v.152a2.305,2.305,0,0,0,1.288,1.97,3.04,3.04,0,0,0,1.136.227,3.622,3.622,0,0,0,2.046-.606,1.388,1.388,0,0,0,.606-1.212,1.4,1.4,0,0,0-.152-.53c0-.152-.076-.227-.076-.379a1.588,1.588,0,0,1,.227-.909c.152-.379.53-.606.985-.909A11.44,11.44,0,0,0,30.806,8c.152-.152.3-.227.379-.3a17.263,17.263,0,0,1,3.031,4.925,1.211,1.211,0,0,1-.758.379,6.489,6.489,0,0,0-1.136.379,3.375,3.375,0,0,0-1.364,1.364c-.227.379-.53.833-.758.833H29.063a4.6,4.6,0,0,0-2.8.455,3.351,3.351,0,0,0-1.591,2.576,6.392,6.392,0,0,0,.455,2.8,2.7,2.7,0,0,0,.909,1.212,2.571,2.571,0,0,0,1.44.379,3.456,3.456,0,0,1,2.2,1.136,2.774,2.774,0,0,1,.606,2.273,2.212,2.212,0,0,1-.152.682,16.871,16.871,0,0,0-.3,3.561c0,.076,0,.152.076.152A16.675,16.675,0,0,1,18.608,35.2,13.989,13.989,0,0,1,12.244,34.064Zm19.244-4.7c.076-.682.152-1.288.227-1.97.076-.227.076-.53.152-.758a4.79,4.79,0,0,0-.909-3.485A4.523,4.523,0,0,0,27.7,21.411a1.513,1.513,0,0,1-.682-.152,1.359,1.359,0,0,1-.379-.53,3.945,3.945,0,0,1-.379-1.97,1.873,1.873,0,0,1,.833-1.44,3.318,3.318,0,0,1,1.97-.227,7.313,7.313,0,0,0,1.288,0,2.534,2.534,0,0,0,1.894-1.44A2.068,2.068,0,0,1,33,14.82c.379-.152.682-.227.909-.3a2.714,2.714,0,0,0,.833-.3,17.8,17.8,0,0,1,.606,4.546A16.424,16.424,0,0,1,31.488,29.366Z" fill="#fff"/>
    </g>
  </g>
</svg>
